<?xml version="1.0" encoding="utf-8"?><svg xmlns="http://www.w3.org/2000/svg" xmlns:xlink="http://www.w3.org/1999/xlink"><symbol viewBox="0 0 24 24" id="arrow_back_ios-24px" xmlns="http://www.w3.org/2000/svg"><path d="M0 0h24v24H0V0z" fill="none" opacity=".87"/><path d="M17.51 3.87L15.73 2.1 5.84 12l9.9 9.9 1.77-1.77L9.38 12l8.13-8.13z"/></symbol><symbol viewBox="0 0 24 24" id="arrow_down" xmlns="http://www.w3.org/2000/svg"><path d="M0 0h24v24H0V0z" fill="none"/><path d="M7.41 8.59L12 13.17l4.59-4.58L18 10l-6 6-6-6 1.41-1.41z"/></symbol><symbol viewBox="0 0 24 24" id="arrow_forward_ios-24px" xmlns="http://www.w3.org/2000/svg"><path d="M24 24H0V0h24v24z" fill="none" opacity=".87"/><path d="M6.49 20.13l1.77 1.77 9.9-9.9-9.9-9.9-1.77 1.77L14.62 12l-8.13 8.13z"/></symbol><symbol viewBox="0 0 24 24" id="chevron_left" xmlns="http://www.w3.org/2000/svg"><path d="M0 0h24v24H0V0z" fill="none"/><path d="M14.71 6.71a.996.996 0 00-1.41 0L8.71 11.3a.996.996 0 000 1.41l4.59 4.59a.996.996 0 101.41-1.41L10.83 12l3.88-3.88c.39-.39.38-1.03 0-1.41z"/></symbol><symbol viewBox="0 0 24 24" id="chevron_left-black-36dp" xmlns="http://www.w3.org/2000/svg"><path d="M0 0h24v24H0V0z" fill="none"/><path d="M14.71 6.71a.996.996 0 00-1.41 0L8.71 11.3a.996.996 0 000 1.41l4.59 4.59a.996.996 0 101.41-1.41L10.83 12l3.88-3.88c.39-.39.38-1.03 0-1.41z"/></symbol><symbol viewBox="0 0 24 24" id="chevron_right" xmlns="http://www.w3.org/2000/svg"><path d="M0 0h24v24H0V0z" fill="none"/><path d="M9.29 6.71a.996.996 0 000 1.41L13.17 12l-3.88 3.88a.996.996 0 101.41 1.41l4.59-4.59a.996.996 0 000-1.41L10.7 6.7c-.38-.38-1.02-.38-1.41.01z"/></symbol><symbol viewBox="0 0 24 24" id="pause" xmlns="http://www.w3.org/2000/svg"><path d="M8 19c1.1 0 2-.9 2-2V7c0-1.1-.9-2-2-2s-2 .9-2 2v10c0 1.1.9 2 2 2zm6-12v10c0 1.1.9 2 2 2s2-.9 2-2V7c0-1.1-.9-2-2-2s-2 .9-2 2z"/></symbol><symbol viewBox="0 0 24 24" id="play" xmlns="http://www.w3.org/2000/svg"><path d="M8 6.82v10.36c0 .79.87 1.27 1.54.84l8.14-5.18a1 1 0 000-1.69L9.54 5.98A.998.998 0 008 6.82z"/></symbol><symbol viewBox="0 0 0 0" id="sprite.symbol" xmlns="http://www.w3.org/2000/svg"/></svg>